<?xml version="1.0" encoding="utf-8"?>
<!-- Generator: Adobe Illustrator 23.0.3, SVG Export Plug-In . SVG Version: 6.00 Build 0)  -->
<svg version="1.0" id="Layer_1" xmlns="http://www.w3.org/2000/svg" xmlns:xlink="http://www.w3.org/1999/xlink" x="0px" y="0px"
	 viewBox="0 0 128 128" style="enable-background:new 0 0 128 128;" xml:space="preserve">
<style type="text/css">
	.st0{fill:#FFFFFF;}
</style>
<path class="st0" d="M99.3,115h-24c-1.1,0-2-0.9-2-2V80.5H55.1V113c0,1.1-0.9,2-2,2h-24c-1.1,0-2-0.9-2-2V62.1c0-0.5,0.2-1,0.6-1.4
	l35.2-36.1c0.4-0.4,0.9-0.6,1.4-0.6l0,0c0.5,0,1.1,0.2,1.4,0.6l35,36.1c0.4,0.4,0.6,0.9,0.6,1.4V113C101.3,114.1,100.4,115,99.3,115
	z M77.3,111h20V62.9l-33-34l-33.2,34V111h20V78.5c0-1.1,0.9-2,2-2h22.2c1.1,0,2,0.9,2,2V111z"/>
<path class="st0" d="M18,63.9c-0.5,0-1-0.2-1.4-0.6c-0.8-0.8-0.8-2-0.1-2.8l46-47.8c0.4-0.4,0.9-0.6,1.4-0.6c0.6,0,1.1,0.2,1.4,0.6
	l45.9,47c0.8,0.8,0.8,2.1,0,2.8c-0.8,0.8-2.1,0.8-2.8,0L64.1,16.9L19.5,63.3C19.1,63.7,18.6,63.9,18,63.9z"/>
<path class="st0" d="M36.4,44.8c-1.1,0-2-0.9-2-2V20c0-1.1,0.9-2,2-2s2,0.9,2,2v22.8C38.4,43.9,37.5,44.8,36.4,44.8z"/>
<ellipse class="st0" cx="36.4" cy="5.1" rx="6.7" ry="5.8"/>
</svg>
