<?xml version="1.0" ?><!DOCTYPE svg  PUBLIC '-//W3C//DTD SVG 1.1//EN'  'http://www.w3.org/Graphics/SVG/1.1/DTD/svg11.dtd'><svg id="Layer_1" style="enable-background:new 0 0 512 512;" version="1.1" viewBox="0 0 512 512" xml:space="preserve" xmlns="http://www.w3.org/2000/svg" xmlns:xlink="http://www.w3.org/1999/xlink"><style type="text/css">
	.st0{fill:none;stroke:#000000;stroke-width:16;}
</style><g><g id="XMLID_2_"><path d="M256,16c32.4,0,63.8,6.3,93.4,18.9c28.6,12.1,54.2,29.4,76.3,51.4c22,22,39.4,47.7,51.4,76.3     c12.5,29.6,18.9,61,18.9,93.4s-6.3,63.8-18.9,93.4c-12.1,28.6-29.4,54.2-51.4,76.3c-22,22-47.7,39.4-76.3,51.4     c-29.6,12.5-61,18.9-93.4,18.9s-63.8-6.3-93.4-18.9c-28.6-12.1-54.2-29.4-76.3-51.4c-22-22-39.4-47.7-51.4-76.3     C22.3,319.8,16,288.4,16,256s6.3-63.8,18.9-93.4c12.1-28.6,29.4-54.2,51.4-76.3c22-22,47.7-39.4,76.3-51.4     C192.2,22.3,223.6,16,256,16 M256,0C114.6,0,0,114.6,0,256s114.6,256,256,256s256-114.6,256-256S397.4,0,256,0L256,0z" id="XMLID_15_"/></g><g id="XMLID_979_"><path class="st0" d="M240,266.8H80c2.5,4.4,5.2,8.6,8.1,12.7c6,8.3,12.8,16.2,20.2,23.3     c9.7,9.3,21.1,17.7,34.3,21c15.9,3.9,31.6-1.1,45.2-9.4c11.9-7.2,22.6-16.4,32.6-26c6.5-6.2,13-13.7,20-20     c13.9-12.6,32.2-22.9,50.1-28.6c16.6-5.4,34.2-6.3,51.5-4.5c26.5,2.7,52.6,10.9,76.2,23.4c4.7,2.5,9.4,5.1,13.7,8.1" id="XMLID_982_"/><path class="st0" d="M224,242.8c0,0-40-56-72-56s-72,56-72,56H224z" id="XMLID_981_"/><path class="st0" d="M176,218.8c0,4.4-3.6,8-8,8s-8-3.6-8-8s3.6-8,8-8S176,214.4,176,218.8z" id="XMLID_980_"/></g></g></svg>